<svg width="21" height="22" fill="none" xmlns="http://www.w3.org/2000/svg"><path d="M21 11.24c0-.702-.061-1.369-.167-2.018H10.89v4.01h5.693a4.955 4.955 0 01-2.112 3.181v2.667h3.396C19.856 17.222 21 14.484 21 11.24z" fill="#000"/><path d="M10.891 21.666c2.85 0 5.235-.96 6.977-2.586l-3.396-2.667c-.95.64-2.156 1.031-3.581 1.031-2.754 0-5.085-1.875-5.921-4.409H1.468v2.747c1.733 3.485 5.297 5.884 9.423 5.884z" fill="#000"/><path d="M4.97 13.036A6.248 6.248 0 014.636 11c0-.711.123-1.396.334-2.036V6.218H1.468a10.631 10.631 0 000 9.564l3.502-2.746z" fill="#000"/><path d="M10.891 4.555c1.557 0 2.947.543 4.047 1.6l3.009-3.04C16.126 1.391 13.742.333 10.891.333c-4.126 0-7.69 2.4-9.423 5.885L4.97 8.964c.836-2.533 3.167-4.409 5.921-4.409z" fill="#000"/></svg>