<svg width="14" height="14" fill="none" xmlns="http://www.w3.org/2000/svg"><path d="M5.833 7a.5.5 0 01.5-.5H7a.5.5 0 01.5.5v3.333a.5.5 0 11-1 0V7.5h-.167a.5.5 0 01-.5-.5z" fill="#070320" fill-opacity=".56"/><path fill-rule="evenodd" clip-rule="evenodd" d="M6.833 3.833a.666.666 0 100 1.332.666.666 0 000-1.332z" fill="#070320" fill-opacity=".56"/><path fill-rule="evenodd" clip-rule="evenodd" d="M7 .5a6.5 6.5 0 100 13 6.5 6.5 0 100-13zm0 1a5.5 5.5 0 100 11 5.5 5.5 0 000-11z" fill="#070320" fill-opacity=".56"/></svg>