<svg width="20" height="20" fill="none" xmlns="http://www.w3.org/2000/svg"><path fill-rule="evenodd" clip-rule="evenodd" d="M5.38 1.538a3.841 3.841 0 00-3.842 3.843v9.239a3.841 3.841 0 003.843 3.842h9.239a3.841 3.841 0 003.842-3.841V5.38a3.841 3.841 0 00-3.841-3.843H5.38zM0 5.381A5.38 5.38 0 015.38 0h9.24A5.38 5.38 0 0120 5.38v9.24A5.38 5.38 0 0114.62 20H5.38A5.38 5.38 0 010 14.62V5.38zm15.072-1.573h.004c.613 0 1.12.497 1.116 1.12l-.693-.003h.693v.003a1.115 1.115 0 11-1.12-1.12zm-.419 1.114V4.92a.423.423 0 01.422-.42h.002a.423.423 0 01.003.847l-.004-.77v.77a.424.424 0 01-.423-.423v-.002zm0 0V4.92v.004m-2.586 3.01a2.923 2.923 0 10-4.134 4.133 2.923 2.923 0 004.134-4.134zm-5.222-1.09a4.462 4.462 0 116.31 6.31 4.462 4.462 0 01-6.31-6.31z" fill="#070320"/></svg>