<svg width="20" height="17" fill="none" xmlns="http://www.w3.org/2000/svg"><path fill-rule="evenodd" clip-rule="evenodd" d="M2.665.002A.77.77 0 013.293.4c.912 1.673 2.492 3.199 4.201 3.9.207-1.08.695-2.04 1.431-2.782C9.883.553 11.217 0 12.77 0c1.025 0 1.89.193 2.62.578a4.53 4.53 0 011.468 1.243h2.374a.77.77 0 01.678.401.75.75 0 01-.038.78l-1.719 2.543c-.044 3.23-1.006 6.07-2.844 8.124C13.415 15.787 10.658 17 7.23 17c-1.995 0-3.445-.518-4.576-1.308-1.108-.773-1.866-1.78-2.507-2.646a.75.75 0 01-.092-.732.766.766 0 01.5-.445l.013-.004.087-.028.316-.103.95-.313.277-.091C-.383 8.037-.395 3.602 1.99.316a.773.773 0 01.676-.315zm1.118 12.405l-.429.142a2306.641 2306.641 0 01-1.324.437c.446.552.923 1.055 1.513 1.467.854.597 1.99 1.03 3.688 1.03 3.035 0 5.354-1.063 6.923-2.818 1.58-1.766 2.461-4.305 2.461-7.352 0-.15.045-.297.13-.421l1.048-1.553h-1.331a.772.772 0 01-.643-.34c-.32-.48-.69-.838-1.154-1.082-.464-.244-1.07-.4-1.896-.4-1.167 0-2.096.41-2.744 1.063-.653.658-1.064 1.608-1.102 2.758a.756.756 0 01-.304.579.777.777 0 01-.647.133c-2.126-.51-4.064-2.057-5.35-3.846-1.486 2.874-1.049 6.444 1.463 8.95a.752.752 0 01.202.71.763.763 0 01-.504.543z" fill="#070320"/></svg>