<svg width="412" height="112" fill="none" xmlns="http://www.w3.org/2000/svg"><path d="M11.739 80V26.96h17.578c3.662 0 7.085.695 10.267 2.085a26.18 26.18 0 018.448 5.72 26.182 26.182 0 015.721 8.449c1.39 3.182 2.084 6.604 2.084 10.267 0 3.662-.695 7.097-2.084 10.304a26.737 26.737 0 01-5.72 8.449c-2.425 2.424-5.241 4.331-8.449 5.72C36.402 79.318 32.979 80 29.317 80H11.738zm11.365-11.365h6.213c2.046 0 3.978-.392 5.797-1.175a15.753 15.753 0 004.849-3.258 14.99 14.99 0 003.296-4.811c.808-1.844 1.212-3.814 1.212-5.91 0-2.097-.404-4.054-1.212-5.873a14.99 14.99 0 00-3.296-4.811A14.99 14.99 0 0035.15 39.5c-1.818-.783-3.763-1.175-5.834-1.175h-6.213v30.309zm54.658 12.35c-3.485 0-6.668-.897-9.547-2.69-2.854-1.793-5.14-4.192-6.857-7.198-1.692-3.03-2.538-6.377-2.538-10.04 0-2.778.492-5.367 1.477-7.766.985-2.425 2.336-4.546 4.054-6.365a19.016 19.016 0 016.061-4.319c2.299-1.035 4.749-1.553 7.35-1.553 3.486 0 6.655.897 9.51 2.69 2.878 1.793 5.164 4.205 6.856 7.236 1.718 3.03 2.577 6.39 2.577 10.078 0 2.752-.493 5.329-1.478 7.728a20.525 20.525 0 01-4.092 6.365 18.859 18.859 0 01-6.023 4.28c-2.273 1.036-4.723 1.554-7.35 1.554zm0-11.365c1.44 0 2.728-.392 3.864-1.175a8.125 8.125 0 002.728-3.106c.657-1.314.985-2.74.985-4.282 0-1.59-.353-3.043-1.06-4.356-.683-1.314-1.605-2.35-2.766-3.107a6.47 6.47 0 00-3.751-1.174 6.616 6.616 0 00-3.864 1.212c-1.137.783-2.046 1.831-2.728 3.145-.657 1.313-.985 2.74-.985 4.28 0 1.617.341 3.07 1.023 4.357.707 1.288 1.629 2.311 2.766 3.069a6.8 6.8 0 003.788 1.136zm60.193-13.829V80H126.59V58.974c0-1.187-.29-2.26-.871-3.22a6.343 6.343 0 00-2.311-2.311c-.96-.581-2.034-.872-3.221-.872-1.187 0-2.273.29-3.258.872a6.343 6.343 0 00-2.311 2.31c-.555.96-.833 2.034-.833 3.22V80h-11.366l-.038-37.885h11.366l.038 2.387a14.217 14.217 0 014.319-2.539 14.44 14.44 0 015.114-.909c2.728 0 5.203.67 7.426 2.008a14.836 14.836 0 015.304 5.304c1.338 2.223 2.007 4.698 2.007 7.425zm5.292-9.054V26.96h7.577v19.776h-7.577zm35.245 6.743h-6.441V80h-11.365V53.48h-4.925V42.115h4.925V30.219h11.365v11.896h6.441V53.48zm36.405 45.462h-11.365V42.115h11.365v3.561a14.73 14.73 0 014.13-3.258c1.565-.859 3.371-1.288 5.417-1.288 2.778 0 5.367.518 7.767 1.553a19.84 19.84 0 016.326 4.32 19.33 19.33 0 014.281 6.326c1.036 2.4 1.554 4.975 1.554 7.728s-.518 5.342-1.554 7.767a19.649 19.649 0 01-4.281 6.403 20.148 20.148 0 01-6.326 4.28c-2.4 1.036-4.989 1.554-7.767 1.554-2.046 0-3.852-.43-5.417-1.288a15.701 15.701 0 01-4.13-3.258v22.427zm9.396-46.901a7.658 7.658 0 00-4.244 1.25c-1.262.808-2.273 1.894-3.03 3.258-.758 1.364-1.137 2.867-1.137 4.508 0 1.667.379 3.183 1.137 4.547.757 1.364 1.768 2.45 3.03 3.258a7.831 7.831 0 004.244 1.212c1.565 0 2.992-.404 4.281-1.212a8.842 8.842 0 003.068-3.258c.758-1.364 1.137-2.88 1.137-4.547 0-1.641-.379-3.144-1.137-4.508a8.842 8.842 0 00-3.068-3.258c-1.289-.833-2.716-1.25-4.281-1.25zm53.352-9.926h11.366V80h-11.404l-.53-3.41a10.784 10.784 0 01-3.561 3.183c-1.414.808-3.069 1.212-4.963 1.212-2.829 0-5.481-.53-7.956-1.591a20.713 20.713 0 01-6.478-4.395 21.185 21.185 0 01-4.395-6.516c-1.035-2.475-1.553-5.127-1.553-7.956 0-2.702.492-5.228 1.477-7.577a19.074 19.074 0 014.13-6.175 19.843 19.843 0 016.175-4.205c2.349-1.01 4.862-1.516 7.539-1.516 2.172 0 4.142.455 5.91 1.364a18.823 18.823 0 014.774 3.334l-.531-3.637zm-9.395 27.96c1.566 0 2.993-.405 4.281-1.213a8.853 8.853 0 003.069-3.258c.757-1.364 1.136-2.88 1.136-4.547 0-1.666-.379-3.182-1.136-4.546a8.853 8.853 0 00-3.069-3.258c-1.288-.808-2.715-1.212-4.281-1.212-1.566 0-2.993.404-4.281 1.212-1.263.808-2.273 1.894-3.031 3.258-.732 1.364-1.099 2.88-1.099 4.546 0 1.667.379 3.183 1.137 4.547.758 1.364 1.768 2.45 3.031 3.258a7.826 7.826 0 004.243 1.212zm63.94-14.284V80h-11.365V58.974c0-1.187-.291-2.26-.871-3.22a6.343 6.343 0 00-2.311-2.311c-.96-.581-2.034-.872-3.221-.872-1.187 0-2.273.29-3.258.872a6.335 6.335 0 00-2.311 2.31c-.555.96-.833 2.034-.833 3.22V80h-11.366l-.038-37.885h11.366l.038 2.387a14.217 14.217 0 014.319-2.539 14.44 14.44 0 015.114-.909c2.728 0 5.203.67 7.426 2.008a14.825 14.825 0 015.303 5.304c1.339 2.223 2.008 4.698 2.008 7.425zm7.565-13.676h11.365V80h-11.365V42.115zm5.758-3.94c-1.641 0-3.018-.543-4.129-1.63-1.111-1.085-1.667-2.436-1.667-4.053 0-1.591.556-2.93 1.667-4.016 1.111-1.111 2.475-1.667 4.092-1.667 1.591 0 2.929.556 4.015 1.667 1.112 1.086 1.667 2.425 1.667 4.016 0 1.617-.543 2.968-1.629 4.054-1.06 1.086-2.399 1.629-4.016 1.629zm35.149 29.399l10.229 5.53c-1.743 2.375-3.928 4.282-6.554 5.722-2.627 1.44-5.494 2.159-8.6 2.159-3.486 0-6.668-.897-9.547-2.69-2.854-1.793-5.14-4.192-6.857-7.198-1.693-3.03-2.539-6.377-2.539-10.04 0-2.778.493-5.367 1.478-7.766.985-2.425 2.336-4.546 4.054-6.365a19.009 19.009 0 016.061-4.319c2.299-1.035 4.748-1.553 7.35-1.553 3.106 0 5.973.72 8.6 2.16a19.539 19.539 0 016.554 5.796l-10.229 5.531a7.03 7.03 0 00-2.311-1.553 6.249 6.249 0 00-2.614-.568c-1.44 0-2.728.404-3.864 1.212-1.137.808-2.046 1.869-2.728 3.182a9.353 9.353 0 00-.985 4.243c0 1.49.328 2.892.985 4.206.682 1.288 1.591 2.336 2.728 3.144 1.136.808 2.424 1.213 3.864 1.213.909 0 1.78-.177 2.614-.53a8.315 8.315 0 002.311-1.516zm16.424-3.486V26.961h9.472v37.127h-9.472zm4.774 16.897c-1.591 0-2.943-.556-4.054-1.667-1.086-1.111-1.629-2.475-1.629-4.091 0-1.566.543-2.892 1.629-3.978 1.111-1.087 2.463-1.63 4.054-1.63 1.566 0 2.892.543 3.978 1.63 1.086 1.086 1.629 2.412 1.629 3.978 0 1.616-.543 2.98-1.629 4.091-1.086 1.111-2.412 1.667-3.978 1.667z" fill="#FF5525"/><path d="M4.635 80V26.96h17.579c3.662 0 7.084.695 10.267 2.085a26.18 26.18 0 018.448 5.72 26.182 26.182 0 015.72 8.449c1.39 3.182 2.084 6.604 2.084 10.267 0 3.662-.694 7.097-2.083 10.304a26.737 26.737 0 01-5.721 8.449c-2.425 2.424-5.24 4.331-8.449 5.72C29.299 79.318 25.877 80 22.215 80H4.634zM16 68.635h6.214a14.5 14.5 0 005.796-1.175 15.753 15.753 0 004.85-3.258 14.991 14.991 0 003.295-4.811c.809-1.844 1.213-3.814 1.213-5.91 0-2.097-.404-4.054-1.213-5.873a14.991 14.991 0 00-3.296-4.811 14.99 14.99 0 00-4.811-3.296c-1.819-.783-3.763-1.175-5.834-1.175H16v30.309zm54.659 12.35c-3.486 0-6.668-.897-9.548-2.69-2.853-1.793-5.14-4.192-6.857-7.198-1.692-3.03-2.538-6.377-2.538-10.04 0-2.778.492-5.367 1.477-7.766.986-2.425 2.337-4.546 4.054-6.365a19.016 19.016 0 016.062-4.319c2.298-1.035 4.748-1.553 7.35-1.553 3.485 0 6.655.897 9.509 2.69 2.879 1.793 5.165 4.205 6.857 7.236 1.717 3.03 2.576 6.39 2.576 10.078 0 2.752-.492 5.329-1.477 7.728a20.523 20.523 0 01-4.092 6.365 18.859 18.859 0 01-6.024 4.28c-2.273 1.036-4.723 1.554-7.35 1.554zm0-11.365c1.44 0 2.727-.392 3.864-1.175a8.125 8.125 0 002.728-3.106c.656-1.314.984-2.74.984-4.282 0-1.59-.353-3.043-1.06-4.356-.682-1.314-1.604-2.35-2.766-3.107a6.47 6.47 0 00-3.75-1.174 6.615 6.615 0 00-3.865 1.212c-1.136.783-2.045 1.831-2.727 3.145-.657 1.313-.985 2.74-.985 4.28 0 1.617.34 3.07 1.022 4.357.708 1.288 1.63 2.311 2.766 3.069a6.8 6.8 0 003.788 1.136zm60.193-13.829V80h-11.366V58.974c0-1.187-.29-2.26-.871-3.22a6.335 6.335 0 00-2.311-2.311c-.96-.581-2.033-.872-3.22-.872-1.187 0-2.273.29-3.258.872a6.335 6.335 0 00-2.311 2.31c-.556.96-.834 2.034-.834 3.22V80H95.316l-.038-37.885h11.365l.038 2.387A14.229 14.229 0 01111 41.963a14.446 14.446 0 015.115-.909c2.727 0 5.203.67 7.425 2.008a14.82 14.82 0 015.304 5.304c1.339 2.223 2.008 4.698 2.008 7.425zm5.291-9.054V26.96h7.577v19.776h-7.577zm35.245 6.743h-6.44V80h-11.366V53.48h-4.925V42.115h4.925V30.219h11.366v11.896h6.44V53.48zm36.406 45.462h-11.366V42.115h11.366v3.561a14.725 14.725 0 014.129-3.258c1.566-.859 3.372-1.288 5.418-1.288 2.778 0 5.367.518 7.766 1.553a19.856 19.856 0 016.327 4.32 19.33 19.33 0 014.281 6.326c1.035 2.4 1.553 4.975 1.553 7.728s-.518 5.342-1.553 7.767a19.649 19.649 0 01-4.281 6.403 20.164 20.164 0 01-6.327 4.28c-2.399 1.036-4.988 1.554-7.766 1.554-2.046 0-3.852-.43-5.418-1.288a15.697 15.697 0 01-4.129-3.258v22.427zm9.395-46.901a7.652 7.652 0 00-4.243 1.25c-1.263.808-2.273 1.894-3.031 3.258s-1.136 2.867-1.136 4.508c0 1.667.378 3.183 1.136 4.547.758 1.364 1.768 2.45 3.031 3.258a7.826 7.826 0 004.243 1.212c1.566 0 2.993-.404 4.281-1.212a8.853 8.853 0 003.069-3.258c.757-1.364 1.136-2.88 1.136-4.547 0-1.641-.379-3.144-1.136-4.508a8.853 8.853 0 00-3.069-3.258c-1.288-.833-2.715-1.25-4.281-1.25zm53.353-9.926h11.365V80h-11.403l-.53-3.41a10.797 10.797 0 01-3.562 3.183c-1.414.808-3.068 1.212-4.963 1.212-2.828 0-5.48-.53-7.955-1.591a20.718 20.718 0 01-6.479-4.395 21.164 21.164 0 01-4.394-6.516c-1.036-2.475-1.554-5.127-1.554-7.956 0-2.702.493-5.228 1.478-7.577a19.072 19.072 0 014.129-6.175 19.847 19.847 0 016.176-4.205c2.348-1.01 4.861-1.516 7.539-1.516 2.172 0 4.142.455 5.91 1.364a18.817 18.817 0 014.773 3.334l-.53-3.637zm-9.396 27.96c1.566 0 2.993-.405 4.281-1.213a8.853 8.853 0 003.069-3.258c.758-1.364 1.137-2.88 1.137-4.547 0-1.666-.379-3.182-1.137-4.546a8.853 8.853 0 00-3.069-3.258c-1.288-.808-2.715-1.212-4.281-1.212-1.566 0-2.993.404-4.281 1.212-1.262.808-2.273 1.894-3.03 3.258-.733 1.364-1.099 2.88-1.099 4.546 0 1.667.379 3.183 1.136 4.547.758 1.364 1.768 2.45 3.031 3.258a7.828 7.828 0 004.243 1.212zm63.941-14.284V80h-11.366V58.974c0-1.187-.29-2.26-.871-3.22a6.335 6.335 0 00-2.311-2.311c-.96-.581-2.033-.872-3.22-.872-1.187 0-2.273.29-3.258.872a6.335 6.335 0 00-2.311 2.31c-.556.96-.834 2.034-.834 3.22V80h-11.365l-.038-37.885h11.365l.038 2.387a14.229 14.229 0 014.319-2.539 14.446 14.446 0 015.115-.909c2.727 0 5.202.67 7.425 2.008a14.82 14.82 0 015.304 5.304c1.339 2.223 2.008 4.698 2.008 7.425zm7.564-13.676h11.366V80h-11.366V42.115zm5.759-3.94c-1.642 0-3.018-.543-4.13-1.63-1.111-1.085-1.666-2.436-1.666-4.053 0-1.591.555-2.93 1.666-4.016 1.112-1.111 2.476-1.667 4.092-1.667 1.591 0 2.93.556 4.016 1.667 1.111 1.086 1.667 2.425 1.667 4.016 0 1.617-.543 2.968-1.629 4.054-1.061 1.086-2.4 1.629-4.016 1.629zm35.148 29.399l10.229 5.53c-1.742 2.375-3.927 4.282-6.554 5.722-2.626 1.44-5.493 2.159-8.6 2.159-3.485 0-6.667-.897-9.547-2.69-2.854-1.793-5.139-4.192-6.857-7.198-1.692-3.03-2.538-6.377-2.538-10.04 0-2.778.492-5.367 1.477-7.766.985-2.425 2.337-4.546 4.054-6.365a19.013 19.013 0 016.062-4.319c2.298-1.035 4.748-1.553 7.349-1.553 3.107 0 5.974.72 8.6 2.16a19.52 19.52 0 016.554 5.796l-10.229 5.531a7.03 7.03 0 00-2.311-1.553 6.242 6.242 0 00-2.614-.568c-1.439 0-2.727.404-3.864 1.212-1.136.808-2.046 1.869-2.728 3.182a9.366 9.366 0 00-.985 4.243c0 1.49.329 2.892.985 4.206.682 1.288 1.592 2.336 2.728 3.144 1.137.808 2.425 1.213 3.864 1.213.91 0 1.781-.177 2.614-.53a8.315 8.315 0 002.311-1.516zm16.425-3.486V26.961h9.471v37.127h-9.471zm4.773 16.897c-1.591 0-2.942-.556-4.053-1.667-1.086-1.111-1.629-2.475-1.629-4.091 0-1.566.543-2.892 1.629-3.978 1.111-1.087 2.462-1.63 4.053-1.63 1.566 0 2.892.543 3.978 1.63 1.086 1.086 1.629 2.412 1.629 3.978 0 1.616-.543 2.98-1.629 4.091-1.086 1.111-2.412 1.667-3.978 1.667z" fill="#014DD1"/><path d="M8.582 80V26.96h17.579c3.662 0 7.084.695 10.267 2.085a26.181 26.181 0 018.448 5.72 26.18 26.18 0 015.72 8.449c1.39 3.182 2.084 6.604 2.084 10.267 0 3.662-.694 7.097-2.083 10.304a26.735 26.735 0 01-5.72 8.449c-2.426 2.424-5.242 4.331-8.45 5.72C33.246 79.318 29.824 80 26.162 80H8.582zm11.366-11.365h6.213c2.046 0 3.978-.392 5.796-1.175a15.753 15.753 0 004.85-3.258 14.993 14.993 0 003.296-4.811c.808-1.844 1.212-3.814 1.212-5.91 0-2.097-.404-4.054-1.212-5.873a14.993 14.993 0 00-3.296-4.811 14.99 14.99 0 00-4.812-3.296c-1.818-.783-3.763-1.175-5.834-1.175h-6.213v30.309zm54.658 12.35c-3.486 0-6.668-.897-9.547-2.69-2.854-1.793-5.14-4.192-6.857-7.198-1.693-3.03-2.539-6.377-2.539-10.04 0-2.778.493-5.367 1.478-7.766.985-2.425 2.336-4.546 4.053-6.365a19.015 19.015 0 016.062-4.319c2.299-1.035 4.748-1.553 7.35-1.553 3.485 0 6.655.897 9.509 2.69 2.88 1.793 5.165 4.205 6.857 7.236 1.718 3.03 2.576 6.39 2.576 10.078 0 2.752-.492 5.329-1.477 7.728a20.523 20.523 0 01-4.092 6.365 18.857 18.857 0 01-6.023 4.28c-2.274 1.036-4.724 1.554-7.35 1.554zm0-11.365c1.44 0 2.728-.392 3.864-1.175a8.125 8.125 0 002.728-3.106c.657-1.314.985-2.74.985-4.282 0-1.59-.354-3.043-1.061-4.356-.682-1.314-1.604-2.35-2.766-3.107a6.47 6.47 0 00-3.75-1.174 6.616 6.616 0 00-3.864 1.212c-1.137.783-2.046 1.831-2.728 3.145-.657 1.313-.985 2.74-.985 4.28 0 1.617.34 3.07 1.023 4.357.707 1.288 1.629 2.311 2.765 3.069a6.8 6.8 0 003.789 1.136zm60.193-13.829V80h-11.365V58.974c0-1.187-.291-2.26-.872-3.22a6.335 6.335 0 00-2.311-2.311c-.959-.581-2.033-.872-3.22-.872-1.187 0-2.273.29-3.258.872a6.335 6.335 0 00-2.311 2.31c-.556.96-.833 2.034-.833 3.22V80H99.263l-.038-37.885h11.366l.038 2.387a14.212 14.212 0 014.318-2.539 14.45 14.45 0 015.115-.909c2.728 0 5.203.67 7.425 2.008a14.82 14.82 0 015.304 5.304c1.339 2.223 2.008 4.698 2.008 7.425zm5.292-9.054V26.96h7.577v19.776h-7.577zm35.245 6.743h-6.441V80H157.53V53.48h-4.925V42.115h4.925V30.219h11.365v11.896h6.441V53.48zm36.405 45.462h-11.366V42.115h11.366v3.561a14.725 14.725 0 014.129-3.258c1.566-.859 3.372-1.288 5.418-1.288 2.778 0 5.367.518 7.766 1.553a19.834 19.834 0 016.327 4.32 19.33 19.33 0 014.281 6.326c1.036 2.4 1.553 4.975 1.553 7.728s-.517 5.342-1.553 7.767a19.649 19.649 0 01-4.281 6.403 20.141 20.141 0 01-6.327 4.28c-2.399 1.036-4.988 1.554-7.766 1.554-2.046 0-3.852-.43-5.418-1.288a15.697 15.697 0 01-4.129-3.258v22.427zm9.395-46.901c-1.54 0-2.955.417-4.243 1.25-1.263.808-2.273 1.894-3.031 3.258-.757 1.364-1.136 2.867-1.136 4.508 0 1.667.379 3.183 1.136 4.547.758 1.364 1.768 2.45 3.031 3.258a7.828 7.828 0 004.243 1.212c1.566 0 2.993-.404 4.281-1.212a8.853 8.853 0 003.069-3.258c.758-1.364 1.137-2.88 1.137-4.547 0-1.641-.379-3.144-1.137-4.508a8.853 8.853 0 00-3.069-3.258c-1.288-.833-2.715-1.25-4.281-1.25zm53.353-9.926h11.366V80h-11.404l-.53-3.41a10.803 10.803 0 01-3.561 3.183c-1.415.808-3.069 1.212-4.963 1.212-2.829 0-5.481-.53-7.956-1.591a20.718 20.718 0 01-6.479-4.395 21.2 21.2 0 01-4.394-6.516c-1.036-2.475-1.553-5.127-1.553-7.956 0-2.702.492-5.228 1.477-7.577a19.074 19.074 0 014.13-6.175 19.843 19.843 0 016.175-4.205c2.349-1.01 4.862-1.516 7.539-1.516 2.172 0 4.142.455 5.91 1.364a18.84 18.84 0 014.774 3.334l-.531-3.637zm-9.395 27.96c1.566 0 2.993-.405 4.281-1.213a8.842 8.842 0 003.068-3.258c.758-1.364 1.137-2.88 1.137-4.547 0-1.666-.379-3.182-1.137-4.546a8.842 8.842 0 00-3.068-3.258c-1.288-.808-2.715-1.212-4.281-1.212-1.566 0-2.993.404-4.281 1.212-1.263.808-2.273 1.894-3.031 3.258-.733 1.364-1.099 2.88-1.099 4.546 0 1.667.379 3.183 1.137 4.547.757 1.364 1.768 2.45 3.03 3.258a7.831 7.831 0 004.244 1.212zm63.94-14.284V80h-11.365V58.974c0-1.187-.291-2.26-.872-3.22a6.335 6.335 0 00-2.311-2.311c-.959-.581-2.033-.872-3.22-.872-1.187 0-2.273.29-3.258.872a6.335 6.335 0 00-2.311 2.31c-.556.96-.834 2.034-.834 3.22V80h-11.365l-.038-37.885h11.366l.037 2.387a14.45 14.45 0 019.434-3.447c2.728 0 5.203.669 7.425 2.007a14.82 14.82 0 015.304 5.304c1.339 2.223 2.008 4.698 2.008 7.425zm7.565-13.676h11.365V80h-11.365V42.115zm5.758-3.94c-1.641 0-3.018-.543-4.129-1.63-1.112-1.085-1.667-2.436-1.667-4.053 0-1.591.555-2.93 1.667-4.016 1.111-1.111 2.475-1.667 4.091-1.667 1.592 0 2.93.556 4.016 1.667 1.111 1.086 1.667 2.425 1.667 4.016 0 1.617-.543 2.968-1.629 4.054-1.061 1.086-2.399 1.629-4.016 1.629zm35.149 29.399l10.229 5.53c-1.743 2.375-3.928 4.282-6.554 5.722-2.627 1.44-5.494 2.159-8.6 2.159-3.486 0-6.668-.897-9.547-2.69-2.854-1.793-5.14-4.192-6.858-7.198-1.692-3.03-2.538-6.377-2.538-10.04 0-2.778.493-5.367 1.478-7.766.985-2.425 2.336-4.546 4.053-6.365a19.024 19.024 0 016.062-4.319c2.298-1.035 4.748-1.553 7.35-1.553 3.106 0 5.973.72 8.6 2.16a19.539 19.539 0 016.554 5.796l-10.229 5.531a7.04 7.04 0 00-2.311-1.553 6.249 6.249 0 00-2.614-.568c-1.44 0-2.728.404-3.865 1.212-1.136.808-2.045 1.869-2.727 3.182a9.353 9.353 0 00-.985 4.243c0 1.49.328 2.892.985 4.206.682 1.288 1.591 2.336 2.727 3.144 1.137.808 2.425 1.213 3.865 1.213.909 0 1.78-.177 2.614-.53a8.33 8.33 0 002.311-1.516zm16.424-3.486V26.961h9.471v37.127h-9.471zm4.774 16.897c-1.592 0-2.943-.556-4.054-1.667-1.086-1.111-1.629-2.475-1.629-4.091 0-1.566.543-2.892 1.629-3.978 1.111-1.087 2.462-1.63 4.054-1.63 1.565 0 2.891.543 3.977 1.63 1.087 1.086 1.63 2.412 1.63 3.978 0 1.616-.543 2.98-1.63 4.091-1.086 1.111-2.412 1.667-3.977 1.667z" fill="#070320"/></svg>