<svg width="12" height="18" fill="none" xmlns="http://www.w3.org/2000/svg"><path fill-rule="evenodd" clip-rule="evenodd" d="M1.375 3.167c0-.576.466-1.042 1.042-1.042h7.166c.576 0 1.042.466 1.042 1.042V15.47l-4.33-2.252a.625.625 0 00-.576 0l-4.344 2.254V3.167zM2.417.875A2.291 2.291 0 00.125 3.167V16.5a.625.625 0 00.913.555l4.968-2.578 4.956 2.578a.625.625 0 00.913-.555V3.167A2.291 2.291 0 009.583.875H2.417z" fill="#9D9CA7"/><path d="M4.333 6.708a.625.625 0 000 1.25h3.334a.625.625 0 000-1.25H4.333z" fill="#9D9CA7"/></svg>