<svg width="18" height="17" fill="none" xmlns="http://www.w3.org/2000/svg"><path fill-rule="evenodd" clip-rule="evenodd" d="M8.406.923a.625.625 0 01.386.577v3.352c4.722.619 8.333 4.87 8.333 9.976v.839a.625.625 0 01-1.194.258c-1.065-2.347-3.79-4.14-7.14-4.34v3.248a.625.625 0 01-1.066.442L1.058 8.61a.625.625 0 010-.884l6.667-6.667a.625.625 0 01.68-.135zm-.864 10.02v-.002c0-.345.28-.625.625-.625 3.082 0 5.86 1.214 7.609 3.141-.594-4.059-3.783-7.16-7.65-7.415a.625.625 0 01-.584-.624v-2.41l-5.158 5.16 5.158 5.158v-2.382z" fill="#9D9CA7"/></svg>