<svg width="113" height="26" fill="none" xmlns="http://www.w3.org/2000/svg"><path d="M14.621 25.45a12.01 12.01 0 01-3.92-.64c-1.248-.44-2.34-1.065-3.277-1.874a7.11 7.11 0 01-2.03-2.931l4.892-1.804c.115.335.37.66.763.971.404.313.913.573 1.526.78a6.682 6.682 0 002.046.296c.694 0 1.348-.099 1.96-.295.613-.208 1.11-.492 1.492-.85.381-.358.572-.775.572-1.249 0-.485-.202-.884-.607-1.197-.393-.323-.902-.578-1.526-.763a11.501 11.501 0 00-1.89-.433c-1.758-.255-3.336-.67-4.735-1.249-1.388-.59-2.486-1.4-3.296-2.428-.798-1.03-1.196-2.336-1.196-3.92 0-1.515.427-2.839 1.283-3.972.856-1.144 1.983-2.035 3.382-2.67 1.41-.637 2.931-.955 4.561-.955 1.365 0 2.671.22 3.92.66 1.26.427 2.359 1.052 3.296 1.873a6.946 6.946 0 012.012 2.948l-4.892 1.77c-.115-.336-.375-.654-.78-.955-.393-.312-.896-.566-1.509-.763a6.679 6.679 0 00-2.046-.295 5.64 5.64 0 00-1.926.295c-.612.208-1.115.492-1.509.85-.393.358-.59.763-.59 1.214 0 .625.186 1.093.556 1.405.37.3.855.515 1.457.642a33.48 33.48 0 002.011.347c1.665.242 3.198.676 4.597 1.3 1.399.625 2.52 1.457 3.364 2.498.845 1.04 1.267 2.307 1.267 3.798 0 1.515-.428 2.845-1.284 3.99-.844 1.133-1.966 2.017-3.365 2.653-1.399.636-2.925.954-4.579.954zm22.034 0c-1.642 0-3.186-.323-4.631-.97a12.194 12.194 0 01-3.816-2.723 13.057 13.057 0 01-2.567-4.007c-.612-1.526-.919-3.156-.919-4.89 0-1.747.307-3.377.92-4.892a12.788 12.788 0 012.566-4.006 11.961 11.961 0 013.816-2.706 11.03 11.03 0 014.63-.989c1.966 0 3.776.457 5.43 1.37a12.155 12.155 0 014.11 3.626L41.546 7.76a6.839 6.839 0 00-2.168-1.665 6.074 6.074 0 00-2.723-.624 6.14 6.14 0 00-2.62.572 6.863 6.863 0 00-2.15 1.596 7.435 7.435 0 00-1.44 2.341 7.86 7.86 0 00-.52 2.88c0 1.017.174 1.97.52 2.86a7.65 7.65 0 001.44 2.36 7.24 7.24 0 002.15 1.595 6.14 6.14 0 002.62.573c.971 0 1.879-.208 2.723-.625a6.94 6.94 0 002.168-1.7l4.648 2.533a12.405 12.405 0 01-4.11 3.625c-1.654.913-3.464 1.37-5.43 1.37zm22.013 0c-1.642 0-3.186-.323-4.631-.97a12.194 12.194 0 01-3.816-2.723 12.895 12.895 0 01-2.584-4.007c-.624-1.526-.937-3.156-.937-4.89 0-1.735.313-3.36.937-4.874a12.843 12.843 0 012.584-4.024 11.96 11.96 0 013.816-2.706 11.03 11.03 0 014.63-.989c1.654 0 3.203.33 4.649.99a11.963 11.963 0 013.816 2.705 12.594 12.594 0 012.566 4.024c.625 1.514.937 3.139.937 4.873 0 1.735-.312 3.365-.937 4.891a12.643 12.643 0 01-2.566 4.007 12.196 12.196 0 01-3.816 2.723c-1.446.647-2.995.97-4.648.97zm0-5.202c.925 0 1.792-.191 2.601-.573a7.17 7.17 0 002.168-1.595 7.48 7.48 0 001.457-2.36 7.59 7.59 0 00.538-2.86 7.59 7.59 0 00-.538-2.863 7.273 7.273 0 00-1.457-2.341A6.802 6.802 0 0061.27 6.06a5.877 5.877 0 00-2.601-.59c-.925 0-1.798.197-2.62.59a6.863 6.863 0 00-2.15 1.596 7.521 7.521 0 00-1.474 2.341 7.813 7.813 0 00-.52 2.862c0 1.018.173 1.972.52 2.862a7.74 7.74 0 001.474 2.359 7.241 7.241 0 002.15 1.595 6.14 6.14 0 002.62.573zm24.586 5.202c-1.642 0-3.186-.323-4.63-.97a12.196 12.196 0 01-3.816-2.723 12.895 12.895 0 01-2.585-4.007c-.624-1.526-.936-3.156-.936-4.89 0-1.735.312-3.36.936-4.874a12.842 12.842 0 012.585-4.024 11.963 11.963 0 013.815-2.706 11.03 11.03 0 014.631-.989c1.653 0 3.203.33 4.648.99a11.962 11.962 0 013.816 2.705 12.594 12.594 0 012.567 4.024c.624 1.514.936 3.139.936 4.873 0 1.735-.312 3.365-.936 4.891a12.643 12.643 0 01-2.567 4.007 12.195 12.195 0 01-3.816 2.723c-1.445.647-2.995.97-4.648.97zm0-5.202c.925 0 1.792-.191 2.602-.573a7.168 7.168 0 002.168-1.595 7.478 7.478 0 001.457-2.36 7.59 7.59 0 00.537-2.86 7.605 7.605 0 00-.537-2.863 7.272 7.272 0 00-1.457-2.341 6.8 6.8 0 00-2.168-1.596 5.876 5.876 0 00-2.602-.59 5.99 5.99 0 00-2.619.59 6.862 6.862 0 00-2.15 1.596 7.523 7.523 0 00-1.475 2.341 7.813 7.813 0 00-.52 2.862c0 1.018.173 1.972.52 2.862.359.89.85 1.677 1.474 2.359a7.24 7.24 0 002.151 1.595 6.14 6.14 0 002.619.573zM96.431 25V.718h9.158c1.33 0 2.532.342 3.608 1.024a7.356 7.356 0 012.584 2.705c.636 1.122.954 2.353.954 3.695 0 1.364-.33 2.607-.989 3.729a7.533 7.533 0 01-2.601 2.688 6.647 6.647 0 01-3.556 1.006h-3.954V25h-5.204zm5.204-14.638h3.364c.463 0 .885-.116 1.266-.347a2.8 2.8 0 00.92-.954c.231-.393.347-.827.347-1.301s-.116-.908-.347-1.3a2.647 2.647 0 00-.92-.937 2.307 2.307 0 00-1.266-.365h-3.364v5.204z" fill="#FF5525"/><path d="M9.961 25.783a12.01 12.01 0 01-3.92-.641c-1.248-.44-2.34-1.064-3.277-1.873a7.109 7.109 0 01-2.03-2.932l4.891-1.803c.116.335.37.659.764.97.404.313.913.573 1.526.781a6.68 6.68 0 002.046.295c.694 0 1.347-.098 1.96-.295.613-.208 1.11-.491 1.492-.85.381-.358.572-.774.572-1.248 0-.486-.202-.885-.607-1.197-.393-.324-.902-.578-1.526-.763a11.503 11.503 0 00-1.89-.434c-1.758-.254-3.336-.67-4.736-1.248-1.387-.59-2.486-1.4-3.295-2.429C1.133 11.087.734 9.781.734 8.196c0-1.514.428-2.838 1.284-3.971C2.873 3.08 4 2.19 5.4 1.554 6.81.918 8.33.6 9.96.6c1.365 0 2.671.22 3.92.659 1.26.428 2.359 1.052 3.296 1.873a6.947 6.947 0 012.011 2.949l-4.89 1.769c-.116-.336-.376-.654-.781-.954-.393-.312-.896-.567-1.509-.763a6.68 6.68 0 00-2.047-.295 5.64 5.64 0 00-1.925.295c-.613.208-1.116.491-1.509.85-.393.358-.59.763-.59 1.214 0 .624.186 1.092.556 1.405.37.3.855.514 1.456.641.613.127 1.284.243 2.012.347 1.665.243 3.197.677 4.596 1.3 1.4.625 2.521 1.458 3.365 2.498.844 1.041 1.266 2.307 1.266 3.799 0 1.514-.427 2.844-1.283 3.989-.844 1.133-1.966 2.018-3.365 2.654-1.399.635-2.925.953-4.579.953zm22.034 0c-1.642 0-3.186-.323-4.631-.97a12.198 12.198 0 01-3.816-2.724 13.059 13.059 0 01-2.567-4.006c-.613-1.527-.919-3.157-.919-4.891 0-1.746.306-3.377.92-4.891a12.788 12.788 0 012.566-4.007 11.962 11.962 0 013.816-2.705A11.03 11.03 0 0131.994.6c1.966 0 3.776.457 5.43 1.37a12.157 12.157 0 014.11 3.625l-4.648 2.498a6.837 6.837 0 00-2.168-1.665 6.073 6.073 0 00-2.723-.625c-.925 0-1.798.19-2.62.573a6.863 6.863 0 00-2.15 1.595 7.435 7.435 0 00-1.44 2.342 7.86 7.86 0 00-.52 2.879c0 1.017.174 1.971.52 2.861.348.89.827 1.677 1.44 2.36a7.24 7.24 0 002.15 1.595 6.14 6.14 0 002.62.572c.971 0 1.879-.208 2.723-.624a6.937 6.937 0 002.168-1.7l4.648 2.532a12.408 12.408 0 01-4.11 3.625c-1.654.914-3.464 1.37-5.43 1.37zm22.013 0c-1.642 0-3.186-.323-4.631-.97a12.199 12.199 0 01-3.816-2.724 12.896 12.896 0 01-2.584-4.006c-.625-1.527-.937-3.157-.937-4.891 0-1.735.312-3.36.937-4.874a12.842 12.842 0 012.584-4.024 11.963 11.963 0 013.816-2.705A11.03 11.03 0 0154.007.6c1.654 0 3.203.33 4.649.989a11.96 11.96 0 013.815 2.705 12.593 12.593 0 012.567 4.024c.625 1.515.937 3.14.937 4.874 0 1.734-.312 3.364-.937 4.89a12.643 12.643 0 01-2.567 4.007 12.197 12.197 0 01-3.815 2.723c-1.446.648-2.995.971-4.648.971zm0-5.203c.924 0 1.792-.19 2.601-.572a7.167 7.167 0 002.168-1.596 7.479 7.479 0 001.457-2.358 7.59 7.59 0 00.538-2.862 7.59 7.59 0 00-.538-2.862 7.272 7.272 0 00-1.457-2.341 6.801 6.801 0 00-2.168-1.596 5.877 5.877 0 00-2.602-.59c-.925 0-1.797.197-2.618.59a6.862 6.862 0 00-2.151 1.596 7.524 7.524 0 00-1.474 2.34 7.813 7.813 0 00-.52 2.863c0 1.017.173 1.971.52 2.861a7.76 7.76 0 001.474 2.36 7.238 7.238 0 002.15 1.595 6.14 6.14 0 002.62.572zm24.586 5.203c-1.642 0-3.186-.323-4.631-.97a12.197 12.197 0 01-3.816-2.724 12.895 12.895 0 01-2.584-4.006c-.624-1.527-.937-3.157-.937-4.891 0-1.735.313-3.36.937-4.874a12.84 12.84 0 012.584-4.024 11.961 11.961 0 013.816-2.705A11.03 11.03 0 0178.593.6c1.654 0 3.204.33 4.65.989a11.961 11.961 0 013.815 2.705 12.593 12.593 0 012.567 4.024c.624 1.515.936 3.14.936 4.874 0 1.734-.312 3.364-.936 4.89a12.643 12.643 0 01-2.567 4.007 12.197 12.197 0 01-3.816 2.723c-1.445.648-2.995.971-4.648.971zm0-5.203c.925 0 1.792-.19 2.602-.572a7.169 7.169 0 002.168-1.596 7.48 7.48 0 001.456-2.358c.359-.89.538-1.845.538-2.862 0-1.018-.18-1.972-.538-2.862a7.274 7.274 0 00-1.456-2.341 6.803 6.803 0 00-2.169-1.596 5.877 5.877 0 00-2.601-.59c-.925 0-1.798.197-2.62.59a6.864 6.864 0 00-2.15 1.596 7.522 7.522 0 00-1.474 2.34 7.813 7.813 0 00-.52 2.863c0 1.017.173 1.971.52 2.861a7.74 7.74 0 001.474 2.36 7.24 7.24 0 002.15 1.595 6.14 6.14 0 002.62.572zm13.177 4.752V1.052h9.158c1.33 0 2.532.341 3.607 1.023a7.35 7.35 0 012.585 2.706c.636 1.121.954 2.353.954 3.694 0 1.365-.33 2.607-.989 3.73a7.534 7.534 0 01-2.602 2.687 6.644 6.644 0 01-3.555 1.006h-3.955v9.435h-5.203zm5.203-14.638h3.365c.463 0 .885-.116 1.266-.347a2.77 2.77 0 00.919-.954c.232-.393.347-.826.347-1.3 0-.474-.115-.908-.347-1.301a2.636 2.636 0 00-.919-.937 2.307 2.307 0 00-1.266-.364h-3.365v5.203z" fill="#3A95FF"/><path d="M12.291 25.608a12.01 12.01 0 01-3.92-.642c-1.248-.44-2.34-1.064-3.277-1.873a7.11 7.11 0 01-2.03-2.931l4.891-1.804c.116.335.37.659.764.971.404.312.913.572 1.526.78.613.197 1.295.295 2.046.295.694 0 1.348-.098 1.96-.294.613-.209 1.11-.492 1.492-.85.382-.359.572-.775.572-1.249 0-.486-.202-.885-.607-1.197-.393-.323-.902-.578-1.526-.763a11.5 11.5 0 00-1.89-.433c-1.758-.255-3.336-.671-4.735-1.25-1.388-.589-2.486-1.398-3.296-2.427-.798-1.03-1.197-2.336-1.197-3.92 0-1.515.428-2.839 1.284-3.972.856-1.145 1.983-2.035 3.382-2.67C9.14.741 10.661.423 12.291.423c1.365 0 2.671.22 3.92.66 1.26.427 2.359 1.051 3.296 1.872a6.946 6.946 0 012.011 2.949l-4.89 1.769c-.116-.335-.376-.653-.781-.954-.393-.312-.896-.567-1.509-.763a6.679 6.679 0 00-2.047-.295 5.638 5.638 0 00-1.925.295c-.613.208-1.116.491-1.509.85-.393.358-.59.763-.59 1.214 0 .624.186 1.093.556 1.405.37.3.855.514 1.457.641a31.96 31.96 0 002.011.347c1.665.243 3.197.677 4.597 1.301 1.399.624 2.52 1.457 3.364 2.498.844 1.04 1.266 2.306 1.266 3.798 0 1.515-.427 2.844-1.283 3.99-.844 1.132-1.966 2.017-3.365 2.653-1.399.636-2.925.954-4.579.954zm22.034 0c-1.642 0-3.186-.324-4.631-.972a12.197 12.197 0 01-3.816-2.723 13.059 13.059 0 01-2.567-4.006c-.613-1.526-.919-3.157-.919-4.891 0-1.746.306-3.376.92-4.891a12.788 12.788 0 012.566-4.007 11.961 11.961 0 013.816-2.705 11.03 11.03 0 014.63-.989c1.966 0 3.776.457 5.43 1.37a12.156 12.156 0 014.11 3.625l-4.648 2.498a6.838 6.838 0 00-2.168-1.665 6.073 6.073 0 00-2.723-.625 6.14 6.14 0 00-2.62.573 6.864 6.864 0 00-2.15 1.595 7.435 7.435 0 00-1.44 2.342c-.346.89-.52 1.85-.52 2.879 0 1.017.174 1.971.52 2.862.348.89.827 1.676 1.44 2.358a7.24 7.24 0 002.15 1.596 6.139 6.139 0 002.62.572c.971 0 1.879-.208 2.723-.624a6.941 6.941 0 002.168-1.7l4.648 2.533a12.409 12.409 0 01-4.11 3.625c-1.654.913-3.464 1.37-5.43 1.37zm22.012 0c-1.641 0-3.185-.324-4.63-.972a12.199 12.199 0 01-3.816-2.723 12.896 12.896 0 01-2.584-4.006c-.625-1.526-.937-3.157-.937-4.891 0-1.735.312-3.359.937-4.874a12.842 12.842 0 012.584-4.024 11.963 11.963 0 013.816-2.705 11.03 11.03 0 014.63-.989c1.654 0 3.203.33 4.649.989A11.963 11.963 0 0164.8 4.118a12.594 12.594 0 012.567 4.024c.625 1.515.937 3.14.937 4.874 0 1.734-.312 3.365-.937 4.89a12.644 12.644 0 01-2.567 4.007 12.199 12.199 0 01-3.815 2.723c-1.446.648-2.995.972-4.648.972zm0-5.204c.925 0 1.793-.19 2.602-.572a7.167 7.167 0 002.168-1.596 7.481 7.481 0 001.457-2.358 7.59 7.59 0 00.538-2.862c0-1.018-.18-1.972-.538-2.862a7.273 7.273 0 00-1.457-2.341 6.802 6.802 0 00-2.168-1.596 5.877 5.877 0 00-2.602-.59c-.925 0-1.798.197-2.618.59a6.863 6.863 0 00-2.151 1.596 7.523 7.523 0 00-1.474 2.341 7.812 7.812 0 00-.52 2.862c0 1.017.173 1.971.52 2.862.358.89.85 1.676 1.474 2.358a7.239 7.239 0 002.15 1.596 6.134 6.134 0 002.62.572zm24.587 5.204a11.18 11.18 0 01-4.63-.972 12.197 12.197 0 01-3.816-2.723 12.895 12.895 0 01-2.585-4.006c-.624-1.526-.936-3.157-.936-4.891 0-1.735.312-3.359.936-4.874a12.84 12.84 0 012.585-4.024 11.961 11.961 0 013.815-2.705 11.03 11.03 0 014.631-.989c1.653 0 3.203.33 4.648.989a11.961 11.961 0 013.816 2.705 12.593 12.593 0 012.567 4.024c.624 1.515.936 3.14.936 4.874 0 1.734-.312 3.365-.936 4.89a12.643 12.643 0 01-2.567 4.007 12.197 12.197 0 01-3.816 2.723c-1.445.648-2.995.972-4.648.972zm0-5.204c.925 0 1.792-.19 2.602-.572a7.168 7.168 0 002.168-1.596 7.483 7.483 0 001.456-2.358c.359-.89.538-1.845.538-2.862a7.59 7.59 0 00-.538-2.862 7.275 7.275 0 00-1.456-2.341 6.803 6.803 0 00-2.168-1.596 5.877 5.877 0 00-2.602-.59 5.99 5.99 0 00-2.619.59 6.863 6.863 0 00-2.15 1.596 7.523 7.523 0 00-1.475 2.341 7.814 7.814 0 00-.52 2.862c0 1.017.173 1.971.52 2.862.359.89.85 1.676 1.474 2.358a7.239 7.239 0 002.151 1.596 6.139 6.139 0 002.619.572zm13.177 4.753V.875h9.158c1.33 0 2.532.341 3.607 1.023a7.35 7.35 0 012.585 2.706c.636 1.122.954 2.353.954 3.694 0 1.365-.33 2.608-.989 3.73a7.526 7.526 0 01-2.602 2.688 6.64 6.64 0 01-3.555 1.006h-3.954v9.435H94.1zm5.204-14.639h3.364c.463 0 .885-.115 1.266-.347.382-.242.688-.56.92-.953a2.52 2.52 0 00.346-1.301 2.52 2.52 0 00-.346-1.301 2.647 2.647 0 00-.92-.937 2.307 2.307 0 00-1.266-.364h-3.364v5.203z" fill="#070320"/></svg>